<mxfile host="app.diagrams.net" modified="2023-12-29T23:12:36.848Z" agent="Mozilla/5.0 (Macintosh; Intel Mac OS X 10_15_7) AppleWebKit/605.1.15 (KHTML, like Gecko) Version/17.1 Safari/605.1.15" version="22.1.16" etag="DIFQFY_lFq_g-OZ50yJs" type="github">
  <diagram name="Page-1" id="-n_KzFbYZY5C9B0dR4J5">
    <mxGraphModel>
      <root>
        <mxCell id="0" />
        <mxCell id="1" parent="0" />
      </root>
    </mxGraphModel>
  </diagram>
</mxfile>
